<svg xmlns="http://www.w3.org/2000/svg" viewBox="0 0 960 540" width="960" height="540">
  <defs>
    <linearGradient id="bg" x1="0" y1="0" x2="0" y2="1">
      <stop offset="0" stop-color="#241657" />
      <stop offset="1" stop-color="#0F172A" />
    </linearGradient>
  </defs>
  <rect width="960" height="540" fill="url(#bg)" />
  <rect x="60" y="40" width="840" height="60" rx="16" fill="#fff" opacity="0.05" />
  <text x="90" y="78" font-family="Space Grotesk, sans-serif" font-size="26" font-weight="700" fill="#FFD93D">SCORE 12,480</text>
  <!-- grid board -->
  <g transform="translate(300 150)">
    <rect x="-20" y="-20" width="380" height="380" rx="28" fill="#fff" opacity="0.06" />
    <rect x="20" y="20" width="90" height="90" rx="16" fill="#6C5CE7" />
    <rect x="130" y="20" width="90" height="90" rx="16" fill="#00D2FF" />
    <rect x="240" y="20" width="90" height="90" rx="16" fill="#6C5CE7" />
    <rect x="20" y="130" width="90" height="90" rx="16" fill="#FFD93D" />
    <rect x="130" y="130" width="90" height="90" rx="16" fill="#6C5CE7" />
    <rect x="240" y="130" width="90" height="90" rx="16" fill="#00D2FF" />
    <rect x="20" y="240" width="90" height="90" rx="16" fill="#00D2FF" />
    <rect x="130" y="240" width="90" height="90" rx="16" fill="#FFD93D" />
    <circle cx="65" cy="65" r="9" fill="#0F172A" /><circle cx="95" cy="65" r="9" fill="#0F172A" />
    <circle cx="175" cy="65" r="9" fill="#0F172A" /><circle cx="205" cy="65" r="9" fill="#0F172A" />
  </g>
</svg>
