<?xml version="1.0" standalone="no"?>
<!DOCTYPE svg PUBLIC "-//W3C//DTD SVG 20010904//EN"
 "http://www.w3.org/TR/2001/REC-SVG-20010904/DTD/svg10.dtd">
<svg version="1.0" xmlns="http://www.w3.org/2000/svg"
 width="512.000000pt" height="512.000000pt" viewBox="0 0 512.000000 512.000000"
 preserveAspectRatio="xMidYMid meet">
<metadata>
Created by potrace 1.16, written by Peter Selinger 2001-2019
</metadata>
<g transform="translate(0.000000,512.000000) scale(0.100000,-0.100000)"
fill="#000000" stroke="none">
<path d="M2912 3307 c-17 -13 -30 -27 -27 -30 3 -4 2 -5 -1 -2 -10 7 -50 -17
-294 -170 -19 -12 -93 -59 -165 -103 -121 -76 -316 -206 -381 -255 -16 -12
-68 -61 -116 -108 -110 -109 -148 -180 -148 -280 0 -80 16 -122 65 -169 l36
-35 -27 50 c-41 72 -39 159 5 241 29 55 130 166 221 242 32 26 348 240 427
288 17 10 69 42 115 70 45 28 117 72 158 97 41 25 85 55 96 66 12 11 25 17 28
14 3 -4 6 -1 6 5 0 7 7 12 15 12 8 0 15 5 15 10 0 6 3 9 8 8 14 -3 42 14 36
23 -3 5 -10 7 -15 4 -5 -4 -9 -1 -9 5 0 6 -4 9 -9 5 -6 -3 -8 4 -6 15 5 25 6
25 -33 -3z"/>
<path d="M3003 3183 l-53 -36 0 -177 0 -177 92 -7 c134 -9 156 -25 254 -178
115 -182 144 -208 228 -208 61 0 95 16 88 42 -3 12 -11 18 -22 15 -12 -3 -16
1 -14 17 1 12 3 31 3 44 1 12 7 22 16 22 8 0 15 5 15 10 0 6 -4 10 -9 10 -5 0
-4 11 2 24 7 13 14 23 18 21 3 -2 6 3 6 11 0 8 -6 13 -13 10 -8 -3 -10 2 -6
16 4 17 2 20 -12 15 -10 -4 -20 -7 -22 -7 -3 0 -2 -5 2 -12 4 -7 3 -8 -5 -4
-9 6 -9 11 -1 21 7 8 9 18 6 24 -3 5 3 7 14 4 11 -3 20 0 20 6 0 6 -5 11 -11
11 -6 0 -17 7 -25 15 -14 13 -12 15 13 16 17 1 21 3 11 6 -10 2 -18 9 -18 14
0 6 5 7 11 3 9 -5 10 1 5 20 -6 25 7 37 17 16 3 -6 4 -5 3 2 -1 7 -12 14 -24
14 -13 1 -19 -3 -15 -10 4 -7 1 -7 -7 1 -7 6 -12 24 -12 40 0 15 -5 31 -12 35
-8 6 -7 8 2 8 6 0 12 7 12 16 0 9 5 12 12 8 7 -4 8 -3 4 4 -5 9 -13 9 -28 1
-26 -14 -35 -1 -32 46 2 19 -1 35 -7 35 -6 0 -7 6 -4 13 4 6 1 5 -7 -4 -10
-12 -21 -13 -45 -7 -37 10 -57 39 -50 74 2 13 0 21 -4 18 -5 -3 -17 0 -26 5
-10 6 -13 11 -7 11 6 0 11 6 11 13 0 8 -11 11 -34 9 -26 -3 -40 2 -59 19 -18
17 -27 20 -36 11 -8 -8 -16 -6 -30 10 -10 12 -18 25 -18 31 0 5 -11 7 -25 5
-13 -3 -23 -1 -22 5 4 20 -25 18 -30 -2 -3 -12 -9 -21 -14 -21 -5 0 -6 6 -3
14 4 10 -2 12 -20 9 -14 -3 -23 -9 -20 -14 3 -5 0 -9 -7 -9 -6 0 -9 8 -6 20 3
11 4 20 4 19 -1 -1 -26 -17 -54 -36z"/>
<path d="M2130 3180 c-13 -9 -13 -11 0 -20 13 -9 13 -11 0 -20 -21 -13 -30
-12 -36 4 -3 8 -12 17 -20 20 -9 3 -12 1 -9 -4 3 -6 1 -10 -4 -10 -6 0 -11 5
-11 10 0 6 -5 10 -11 10 -6 0 -9 -6 -6 -13 3 -8 1 -20 -4 -28 -7 -11 -9 -11
-9 4 0 9 -4 17 -10 17 -5 0 -10 8 -11 18 0 10 -3 12 -6 4 -2 -6 -9 -10 -14 -6
-5 3 -24 -2 -41 -10 -25 -13 -33 -14 -40 -4 -5 9 -8 6 -8 -9 0 -13 6 -23 13
-23 8 0 7 -4 -3 -10 -11 -7 0 -10 38 -10 l53 0 -3 -47 -3 -48 -47 -3 -47 -3
-3 -52 -3 -52 -45 0 -45 0 -3 53 -3 52 -53 0 -52 0 6 54 c3 30 2 52 -2 50 -4
-3 -8 -13 -8 -23 0 -11 -14 -22 -37 -30 -20 -8 -44 -21 -53 -30 -8 -9 -12 -12
-8 -6 4 7 5 15 1 18 -13 13 -23 7 -24 -15 0 -13 -3 -17 -6 -10 -7 18 -33 15
-35 -5 -2 -33 -4 -38 -11 -49 -14 -24 -57 -245 -57 -297 0 -145 83 -255 227
-301 18 -6 21 -1 26 54 15 138 127 286 338 445 57 43 106 81 109 84 3 3 23 16
45 27 22 12 46 32 52 45 7 13 13 18 13 11 0 -9 7 -8 25 4 23 15 25 22 24 88 0
43 -3 63 -8 52 -7 -18 -8 -18 -14 -2 -4 10 -12 14 -19 10 -20 -13 -108 -12
-101 0 4 6 -2 4 -12 -4 -17 -14 -18 -13 -12 3 7 20 7 20 -13 7z"/>
<path d="M2735 3013 c-55 -36 -122 -80 -150 -98 -139 -88 -166 -107 -171 -118
-2 -7 -3 -202 -2 -434 l3 -422 40 37 c22 21 78 71 125 112 47 41 103 91 124
113 21 21 50 45 62 54 13 8 21 19 18 24 -3 5 -2 8 3 7 5 -2 21 7 36 18 l27 22
0 376 c0 207 -3 376 -7 376 -5 0 -53 -30 -108 -67z"/>
<path d="M2150 2622 c-162 -120 -220 -207 -211 -317 1 -24 47 -80 54 -68 3 5
2 15 -4 23 -5 8 -9 34 -9 58 0 70 44 145 149 254 51 54 92 98 90 98 -2 0 -33
-22 -69 -48z"/>
<path d="M1500 1604 l0 -204 50 0 50 0 0 205 c0 198 -1 205 -20 205 -11 0 -20
-4 -20 -9 0 -6 -12 -6 -30 -1 l-30 9 0 -205z"/>
<path d="M1830 1765 l0 -45 85 0 85 0 0 -163 0 -163 45 0 45 0 0 163 0 163 85
0 c47 0 85 3 85 8 0 4 4 24 9 45 l9 37 -224 0 -224 0 0 -45z"/>
<path d="M2580 1155 l0 -85 49 0 c55 0 95 24 105 64 15 58 -36 106 -114 106
l-40 0 0 -85z"/>
<path d="M3213 1228 c-49 -24 -54 -112 -8 -142 28 -18 77 -21 106 -5 27 14 42
56 34 96 -9 52 -77 78 -132 51z"/>
</g>
</svg>
